HIERARCHY
ROOT Hips
{
  OFFSET 40.094901621341705 -48.02098125219345 -0.006545707583427429
  CHANNELS 6 Xposition Yposition Zposition Xrotation Yrotation Zrotation
  JOINT Spine
  {
    OFFSET 0.22830317417781032 8.97819772362709 -2.327803475782275
    CHANNELS 3 Xrotation Yrotation Zrotation
    JOINT Spine1
    {
      OFFSET 0.15220211611853074 5.985465149084732 -1.5518689838548503
      CHANNELS 3 Xrotation Yrotation Zrotation
      JOINT Spine2
      {
        OFFSET 0.15220211611853784 5.985465149084725 -1.5518689838548503
        CHANNELS 3 Xrotation Yrotation Zrotation
        JOINT Neck
        {
          OFFSET 0.22830317417781032 8.97819772362709 -2.327803475782275
          CHANNELS 3 Xrotation Yrotation Zrotation
          JOINT Head
          {
            OFFSET 1.0732974443170704 3.0963681017359086 -2.851170130694906
            CHANNELS 3 Xrotation Yrotation Zrotation
            End Site
            {
              OFFSET 0 0 0
            }
          }
        }
        JOINT LeftShoulder
        {
          OFFSET 1.6266551282670818 5.79453781247139 0.9475916158407935
          CHANNELS 3 Xrotation Yrotation Zrotation
          JOINT LeftArm
          {
            OFFSET 2.9489060242970737 -0.38185467322667677 4.998921199391285
            CHANNELS 3 Xrotation Yrotation Zrotation
            JOINT LeftForeArm
            {
              OFFSET 2.823883295059204 -12.198741734027863 -10.114291589707136
              CHANNELS 3 Xrotation Yrotation Zrotation
              JOINT LeftHand
              {
                OFFSET 0.508609414100647 8.592727780342102 -25.575653463602066
                CHANNELS 3 Xrotation Yrotation Zrotation
                End Site
                {
                  OFFSET 0 0 0
                }
              }
            }
          }
        }
        JOINT RightShoulder
        {
          OFFSET -1.3222508960300061 6.176392485698059 -4.051329583550491
          CHANNELS 3 Xrotation Yrotation Zrotation
          JOINT RightArm
          {
            OFFSET -2.9489060242970737 0.38185467322667677 -4.998921199391287
            CHANNELS 3 Xrotation Yrotation Zrotation
            JOINT RightForeArm
            {
              OFFSET 0.031200051307678223 -14.766395092010498 -17.425642907619476
              CHANNELS 3 Xrotation Yrotation Zrotation
              JOINT RightHand
              {
                OFFSET 6.745836138725281 9.39038097858429 -18.032357096672058
                CHANNELS 3 Xrotation Yrotation Zrotation
                End Site
                {
                  OFFSET 0 0 0
                }
              }
            }
          }
        }
      }
    }
  }
  JOINT LeftUpLeg
  {
    OFFSET 3.0093953013420105 0.2371177077293396 4.272501543164253
    CHANNELS 3 Xrotation Yrotation Zrotation
    JOINT LeftLeg
    {
      OFFSET 4.740941524505615 -15.277105569839478 0.8232623338699341
      CHANNELS 3 Xrotation Yrotation Zrotation
      JOINT LeftFoot
      {
        OFFSET 0.6677210330963135 -13.607543706893921 25.9634368121624
        CHANNELS 3 Xrotation Yrotation Zrotation
        JOINT LeftToeBase
        {
          OFFSET 0.8329784870147705 -5.263383388519287 -4.488393664360046
          CHANNELS 3 Xrotation Yrotation Zrotation
          End Site
          {
            OFFSET 0 0 0
          }
        }
      }
    }
  }
  JOINT RightUpLeg
  {
    OFFSET -3.0093953013420105 -0.2371177077293396 -4.272501543164253
    CHANNELS 3 Xrotation Yrotation Zrotation
    JOINT RightLeg
    {
      OFFSET -5.372783541679382 -15.382078289985657 1.738438941538334
      CHANNELS 3 Xrotation Yrotation Zrotation
      JOINT RightFoot
      {
        OFFSET -3.4210652112960815 -9.683668613433838 28.225924633443356
        CHANNELS 3 Xrotation Yrotation Zrotation
        JOINT RightToeBase
        {
          OFFSET -1.5515470504760778 -5.441756248474121 -4.010108113288879
          CHANNELS 3 Xrotation Yrotation Zrotation
          End Site
          {
            OFFSET 0 0 0
          }
        }
      }
    }
  }
}
MOTION
Frames: 8
Frame Time: 0.03333333333333333
40.094901621341705 -48.02098125219345 -0.006545707583427429 0.0 0.0 0.0 84.21282195275673 14.530689900612451 88.54336132802382 84.21282195275694 14.53068990061245 88.54336132802386 84.21282195275673 14.53068990061245 88.54336132802382 84.21282195275673 14.530689900612458 88.5433613280238 152.16155074893896 41.0240922136316 70.88209349116602 -28.987975943315725 -8.947525687600281 74.31939251208746 6.350308012593539 -59.2543946176783 -7.378190936449514 -69.7763881588711 38.93007049698748 -76.96619570871462 176.4263404083375 71.39877498011667 86.61257605687229 111.62962927941517 32.676292834286535 102.08356549225557 173.64969198740647 59.25439461767831 172.6218090635505 -89.8413192909288 49.72217682840384 -89.87893940334354 139.5236333096637 57.33223286509162 54.307392930016604 -3.6819507500730517 -54.757004776655016 4.505168652133328 9.404406127020252 -2.9462605738362972 -72.75932458189317 86.82818324103953 -62.31244442866931 -87.19075419289184 13.80213769122349 40.10662039987758 -81.00700406946049 -176.31804924992696 54.757004776655016 -175.49483134786666 163.1042498767198 -6.090181261243322 -109.25372268627333 110.60330527683294 -70.00571937844924 -109.4573944702841 -26.24852009218466 35.324137548374495 -105.91384750844352
40.09357839822769 -48.25535714626312 -0.00805053859949112 0.0 0.0 0.0 81.59764278742239 10.082888611307167 88.51867009009672 81.59764278742229 10.082888611307155 88.5186700900967 81.59764278742229 10.082888611307169 88.51867009009669 81.59764278742239 10.082888611307167 88.51867009009672 151.90743477766063 39.295452955289875 71.32189318082341 -37.32583915814764 -12.359414238932848 74.3200659141518 7.439131546064445 -58.088029262405854 -8.744701086462529 -67.55041846750771 34.013850140110804 -76.98566182775619 176.18616751100677 69.75179192177418 86.4212215036412 113.83376604177471 28.461888224125143 101.88884907740596 172.56086845393557 58.088029262405854 171.25529891353747 -89.88117918018595 43.43725982563284 -89.91830351179613 135.96042559327293 50.73580584138653 53.177616665534316 -3.9383072927894345 -53.66662521784465 4.8846104377413635 -16.53999635517463 5.362544027646927 -72.53119874781751 86.73366377161565 -59.071937064743885 -87.1972917233315 14.692223687141219 37.78114629012784 -80.8741924148002 -176.06169270721057 53.66662521784465 -175.11538956225866 166.0908281089918 -4.982629276081438 -109.32672855976821 111.43097400325847 -65.83390225004428 -109.7034641271486 -26.267510699453243 36.47363774331715 -106.35050702067643
40.0973305106163 -48.352764546871185 -0.008654408156871796 0.0 0.0 0.0 80.08828727388358 8.5683048949212 88.50869758133648 80.08828727388392 8.568304894921202 88.50869758133653 80.08828727388358 8.568304894921196 88.50869758133648 80.08828727388358 8.568304894921198 88.50869758133648 152.26780509646017 39.29568019011684 71.58451858892795 -40.233411885810604 -13.745091445679199 74.3135347986971 8.158852744425904 -57.96981444322996 -9.59867605336131 -67.24838304410181 33.333189918501475 -77.02298978294203 176.046057845795 69.54690890460662 86.29460223688154 114.58111691311483 27.134706503757265 101.78456738695007 171.8411472555741 57.96981444322997 170.40132394663868 -89.89660897783072 42.64326467627163 -89.92995961208132 135.39754966020163 50.9833215527642 52.53868321320309 -4.024679714811306 -53.16684577286158 5.023804693451603 -16.35891200483327 5.326142473434881 -72.45153344905486 86.72208261481516 -58.75631354263739 -87.19665968163618 14.768942896359343 38.031580116035876 -80.77445148517131 -175.9753202851887 53.16684577286158 -174.9761953065484 170.29381469803045 -3.444272489389823 -109.35335006759887 111.78408976877688 -64.47647805783329 -109.83168655175488 -25.74823460180275 37.94685348288026 -106.51950322653624
37.38729655742645 -51.18334889411926 -0.009633228182792664 0.0 0.0 0.0 59.248130811785565 9.957401646349641 84.12597297889262 59.24813081178582 9.957401646349638 84.12597297889268 59.24813081178558 9.957401646349652 84.12597297889262 59.24813081178556 9.95740164634963 84.12597297889262 145.61907958826913 44.69458041274415 64.30153840155432 -36.242346208152625 -17.00622509586211 68.24809166696937 20.507863812993357 -59.64068732246463 -23.435936202768747 -72.67215762834195 31.64158308804275 -80.70450057643552 177.86097533063247 64.37722419005527 88.07115798408736 105.09157452180479 29.99645388874922 97.67815140766774 159.49213618700665 59.64068732246463 156.56406379723126 -101.38700298904048 33.47770195567261 -96.33924390157208 115.10472603860693 31.18716209142627 42.138636923689106 -8.667928290455198 -55.13438026436927 10.525579425122457 -46.289144775259125 33.21735284779935 -62.35878970529446 82.78833595049099 -52.17836860528636 -84.29202021817032 19.994434557803093 37.74140009276595 -77.44410746454692 -171.3320717095448 55.13438026436927 -169.47442057487754 169.97466485559238 -2.669970984118495 -104.76207924411644 117.4461120589479 -73.31787270931403 -116.4509397077764 -29.710631577253263 21.655646748159114 -101.89161832739285
36.57422065734863 -52.17210054397583 -0.008786842226982117 0.0 0.0 0.0 69.98689099109703 14.158143319047902 84.90894987343496 69.98689099109717 14.15814331904789 84.908949873435 69.98689099109694 14.158143319047909 84.90894987343495 69.98689099109716 14.158143319047891 84.908949873435 151.79419486554377 46.90625704267443 68.61246101635375 -23.411788147432887 -9.522881898558026 69.08829329327573 8.54628316474763 -56.69454757069336 -10.19341626005939 -77.73914210290121 35.55098047159332 -82.79852219413837 174.7872116470141 69.1674739454908 85.12630479427295 108.20150304884582 32.44085538331811 100.00318961964314 171.45371683525238 56.69454757069336 169.80658373994063 -96.66834363918439 40.12907883466229 -94.30919343582268 131.26222654631093 49.29569278055225 49.171061934342475 -10.40085581120321 -54.45051904701773 12.713001749999806 -41.322583816257804 28.62870477638716 -61.411790748444886 80.87767508185738 -61.27747405886673 -81.98452387626807 20.18255192990533 42.655550775585226 -76.01391380825585 -169.5991441887968 54.45051904701773 -167.2869982500002 170.23992149758982 -2.6547681704032593 -105.07060088552939 116.4519179821889 -78.87077836172908 -116.02060273626309 -30.074260927652105 17.934609621971877 -100.11053306383754
36.34626567363739 -52.935218811035156 -0.005514360964298248 0.0 0.0 0.0 83.44609617016069 22.330856024186513 87.50048443067726 83.44609617016053 22.33085602418653 87.5004844306772 83.44609617016069 22.330856024186506 87.50048443067726 83.44609617016069 22.330856024186513 87.50048443067726 161.707876058268 49.76405758187864 75.83704726663794 3.100209174862881 1.0460790818985064 71.37237575051036 -1.5082138114718033 -52.83927065267959 1.8922452762653694 -76.06909830630431 34.26082466077177 -82.05056176898852 169.1249924091489 74.26332120953121 79.5234116624399 112.47654721485267 38.151085619188855 104.33669444263143 -178.4917861885282 52.83927065267959 -178.10775472373464 -91.07502714292904 43.75343925322173 -90.7434874370342 140.90292788364889 55.08731002228182 56.32262331235331 -8.297791725078506 -53.18770124288337 10.324292442786575 -29.091120294218367 17.452152752340325 -61.67412724307121 79.74500738585684 -62.77980231172449 -80.8603695484337 32.91657809320399 24.559963069701052 -74.94043994920908 -171.7022082749215 53.18770124288337 -169.67570755721343 -163.6720136349201 4.728663996165954 -105.71673833418706 113.26251776342626 -80.27190966838033 -112.96291733694167 -43.0134199338417 11.66784234577154 -100.68485761342382
36.22709810733795 -53.1952828168869 -0.0030493363738059998 0.0 0.0 0.0 85.10725321706059 24.513498315299767 87.96586824212793 85.10725321706056 24.513498315299742 87.9658682421279 85.1072532170607 24.51349831529974 87.96586824212797 85.1072532170606 24.51349831529978 87.96586824212793 162.03501351073828 50.65181394527954 75.92383687166088 20.926031388821567 7.175476960512344 71.90996658824555 -1.8592714125300998 -47.451868593005436 2.5230051604652552 -73.40940083497996 36.92389112293261 -79.85236023623666 168.13738775825155 76.79694119056856 78.44240897743501 113.46923256958648 37.332837187301024 104.75130092618572 -178.1407285874699 47.451868593005464 -177.47699483953477 -90.62539481619312 46.33743164299294 -90.45243064983318 141.87781060643567 59.13231261925463 56.036865205927924 -7.1976882242258355 -48.5152869632374 9.568924701327138 -40.62527720208845 27.91498659290965 -61.37758444825487 79.29224648266779 -62.23883520831669 -80.50086831255184 24.289913572239293 37.74895910149044 -74.55503083770947 -172.80231177577417 48.5152869632374 -170.43107529867288 -163.12616423352196 5.124893115792172 -106.40934870012441 110.34954085823982 -79.2787310103334 -110.02275726145831 -22.968607478949195 24.799597671848105 -100.08033148789065
36.24282032251358 -53.33572030067444 -0.001327507197856903 0.0 0.0 0.0 89.56628086838822 34.50008090202587 89.75433508709098 89.56628086838826 34.50008090202589 89.754335087091 89.56628086838815 34.500080902025886 89.75433508709094 89.56628086838822 34.500080902025864 89.75433508709098 175.14708656087578 54.70232830411779 86.03607862254995 51.34809955379277 21.872220897833603 73.4087852100329 -6.520859838713981 -37.642363252017034 10.600839356265448 -69.3068859634559 38.08152602819921 -76.88529627365438 165.54182586490862 84.40772362444251 75.60777420522854 115.42724931669449 43.2369515821481 108.03884259323513 -173.479140161286 37.64236325201706 -169.39916064373455 -86.49455066714751 44.86662094933824 -87.52549939545598 146.41060758829093 59.72943828888826 60.162265376090524 -5.206688436467554 -38.78343545403367 8.277257640616748 -49.250865239661266 38.97919850501874 -61.5424206161238 79.4306250831037 -63.7960700530841 -80.49594587551178 24.91028565647764 36.85743123162181 -74.43424649220034 -174.79331156353243 38.78343545403367 -171.72274235938326 -163.34806571254416 5.331404973618266 -107.2575598788561 107.0715028531524 -80.76260787460112 -106.86275437321041 -41.53689929816009 12.088291383142787 -100.5099472687173
